<?xml version="1.0" standalone="no"?>
<!DOCTYPE svg PUBLIC "-//W3C//DTD SVG 20010904//EN"
 "http://www.w3.org/TR/2001/REC-SVG-20010904/DTD/svg10.dtd">
<svg version="1.0" xmlns="http://www.w3.org/2000/svg"
 width="512.000000pt" height="512.000000pt" viewBox="0 0 512.000000 512.000000"
 preserveAspectRatio="xMidYMid meet">

<g transform="translate(0.000000,512.000000) scale(0.100000,-0.100000)"
fill="#000000" stroke="none">
<path d="M3855 4154 c-16 -8 -155 -139 -307 -292 l-278 -276 -47 18 c-86 34
-266 83 -363 100 -52 10 -162 20 -245 23 -658 24 -1304 -332 -1717 -947 -168
-249 -169 -309 -15 -541 122 -185 253 -336 417 -482 l75 -66 -272 -273 c-231
-232 -272 -278 -278 -310 -12 -63 15 -116 72 -143 81 -39 -35 -146 1616 1503
1142 1142 1510 1515 1516 1540 18 62 -17 127 -82 151 -38 15 -56 14 -92 -5z
m-1085 -823 c41 -10 99 -30 128 -43 l53 -23 -98 -97 -98 -97 -65 15 c-95 23
-234 15 -329 -19 -173 -61 -309 -197 -373 -373 -28 -76 -36 -263 -15 -341 l14
-52 -98 -97 -98 -98 -21 49 c-60 139 -84 327 -61 470 60 367 335 651 699 720
98 19 261 12 362 -14z"/>
<path d="M3521 3106 l-203 -203 20 -39 c119 -237 107 -548 -31 -794 -51 -90
-213 -258 -299 -308 -156 -92 -300 -127 -487 -119 -129 5 -240 31 -332 77
l-36 19 -159 -160 c-127 -127 -156 -161 -144 -169 8 -5 69 -27 135 -49 834
-277 1707 63 2252 876 149 223 150 288 11 505 -62 98 -179 246 -269 343 -61
66 -237 225 -249 225 -3 0 -97 -92 -209 -204z"/>
<path d="M2736 2321 l-389 -389 54 -16 c137 -41 290 -26 429 42 145 71 273
229 314 388 21 83 20 242 -2 312 l-17 52 -389 -389z"/>
</g>
</svg>
