<?xml version="1.0" standalone="no"?>
<!DOCTYPE svg PUBLIC "-//W3C//DTD SVG 20010904//EN"
 "http://www.w3.org/TR/2001/REC-SVG-20010904/DTD/svg10.dtd">
<svg version="1.0" xmlns="http://www.w3.org/2000/svg"
 width="512.000000pt" height="512.000000pt" viewBox="0 0 512.000000 512.000000"
 preserveAspectRatio="xMidYMid meet">

<g transform="translate(0.000000,512.000000) scale(0.100000,-0.100000)"
fill="#000000" stroke="none">
<path d="M2419 3340 c-379 -36 -727 -195 -996 -454 -105 -101 -263 -297 -263
-326 0 -29 158 -225 263 -326 631 -608 1631 -611 2267 -7 98 93 224 244 256
305 18 36 11 52 -84 174 -247 318 -627 548 -1017 614 -135 22 -312 31 -426 20z
m340 -210 c186 -66 338 -234 387 -430 22 -88 15 -251 -16 -337 -59 -169 -207
-316 -378 -375 -56 -19 -87 -23 -192 -23 -152 0 -224 21 -339 99 -123 84 -210
209 -247 356 -23 89 -15 251 16 339 64 181 230 333 420 386 82 22 265 14 349
-15z"/>
<path d="M2422 2991 c-124 -46 -220 -133 -275 -248 -30 -64 -32 -74 -32 -183
0 -109 2 -119 32 -183 45 -96 128 -179 223 -225 73 -36 78 -37 190 -37 109 0
119 2 183 32 95 45 178 127 225 222 36 73 37 77 37 191 0 114 -1 118 -37 191
-48 96 -120 169 -217 217 -69 34 -82 37 -175 39 -81 3 -112 -1 -154 -16z"/>
</g>
</svg>
