<?xml version="1.0" standalone="no"?>
<!DOCTYPE svg PUBLIC "-//W3C//DTD SVG 20010904//EN"
 "http://www.w3.org/TR/2001/REC-SVG-20010904/DTD/svg10.dtd">
<svg version="1.0" xmlns="http://www.w3.org/2000/svg"
 width="512.000000pt" height="512.000000pt" viewBox="0 0 512.000000 512.000000"
 preserveAspectRatio="xMidYMid meet">

<g transform="translate(0.000000,512.000000) scale(0.100000,-0.100000)"
fill="#000000" stroke="none">
<path d="M2385 4344 c-149 -21 -247 -41 -341 -70 -648 -196 -1127 -736 -1250
-1409 -26 -141 -26 -469 0 -610 145 -794 775 -1384 1576 -1476 129 -14 369 -7
500 16 663 118 1209 604 1404 1249 57 188 70 285 70 516 0 231 -13 328 -70
516 -195 647 -738 1129 -1404 1249 -91 16 -415 29 -485 19z m314 -729 c91 -24
162 -66 237 -140 84 -83 127 -163 151 -280 40 -196 -47 -412 -212 -531 -333
-237 -793 -38 -847 367 -22 166 33 322 157 445 72 72 144 114 235 140 62 17
214 17 279 -1z m153 -1444 c303 -65 592 -233 781 -454 l47 -55 -82 -87 c-197
-209 -465 -357 -758 -421 -120 -27 -439 -27 -558 -1 -273 60 -513 186 -711
373 -40 37 -86 85 -102 106 l-30 38 103 103 c229 228 487 360 807 412 122 20
375 13 503 -14z"/>
</g>
</svg>
